<svg version="1.1" id="Layer_1" xmlns="http://www.w3.org/2000/svg" xmlns:xlink="http://www.w3.org/1999/xlink" x="0px" y="0px"
	 width="100%" viewBox="0 0 225 225" enable-background="new 0 0 225 225" xml:space="preserve">
<path fill="#FFFEFF" opacity="1.000000" stroke="none" 
	d="
M146.000000,226.000000 
	C97.333336,226.000000 49.166672,226.000000 1.000006,226.000000 
	C1.000004,151.000000 1.000004,76.000015 1.000002,1.000016 
	C75.999992,1.000011 150.999985,1.000011 225.999969,1.000005 
	C225.999985,75.999985 225.999985,150.999969 226.000000,225.999969 
	C199.500000,226.000000 173.000000,226.000000 146.000000,226.000000 
M186.581131,172.080093 
	C222.543961,127.228775 207.003067,67.583946 175.387863,43.936550 
	C171.039536,48.168800 166.794159,52.300858 161.851349,57.111732 
	C163.789001,58.755142 166.170486,60.368317 168.054306,62.435101 
	C188.863922,85.265862 193.161179,111.450569 183.403824,140.281693 
	C179.643661,151.392258 172.904724,160.656372 164.177689,168.418427 
	C161.511734,170.789566 161.514114,172.544708 164.141876,174.848495 
	C166.766830,177.149796 169.205795,179.680054 171.579315,182.245880 
	C173.393280,184.206802 174.988907,184.653198 176.958923,182.484985 
	C179.976852,179.163437 183.097366,175.935104 186.581131,172.080093 
M33.830070,162.676926 
	C38.703526,170.870255 44.752872,178.035034 51.517605,183.636169 
	C56.538242,179.524994 61.209919,175.699539 66.159012,171.646927 
	C48.082523,155.500961 38.946537,136.959259 38.785931,114.024284 
	C38.624260,90.938835 47.676285,72.165619 64.311844,56.880924 
	C59.737576,52.337021 55.553165,48.180382 51.360695,44.015739 
	C20.455679,68.771103 7.943657,121.049294 33.830070,162.676926 
M146.984329,96.686058 
	C155.614685,116.014725 150.179550,131.860214 134.934174,144.768860 
	C139.275833,149.353958 143.359619,153.666718 147.413086,157.947464 
	C177.558533,135.846680 176.313507,90.468903 148.324005,69.893852 
	C144.179077,74.130470 140.021286,78.380226 136.115677,82.372238 
	C139.606003,86.883644 143.135834,91.446136 146.984329,96.686058 
M83.453270,135.948547 
	C78.410637,128.990189 75.799309,121.255653 76.005333,112.621414 
	C76.297379,100.381836 81.986633,90.810387 90.409798,83.754364 
	C86.081306,79.065216 82.060966,74.709908 78.046448,70.360901 
	C48.842102,92.798767 51.626530,138.224365 78.143440,156.646713 
	C82.670845,152.345840 87.036575,148.198547 91.338028,144.112320 
	C89.007088,141.728790 86.455597,139.119766 83.453270,135.948547 
M131.962799,116.933617 
	C132.015350,115.606201 132.158295,114.275177 132.105652,112.951950 
	C131.789429,105.005989 127.753410,99.373062 120.644272,96.320198 
	C113.451111,93.231255 106.550789,94.524895 100.832008,99.928375 
	C95.153336,105.293976 93.347260,111.930435 95.897057,119.449944 
	C98.492607,127.104340 105.335350,132.038864 113.170242,132.126053 
	C121.939156,132.223663 128.123306,127.451462 131.962799,116.933617 
z"/>
<path fill="#CF95D9" opacity="1.000000" stroke="none" 
	d="
M186.377747,172.373657 
	C183.097366,175.935104 179.976852,179.163437 176.958923,182.484985 
	C174.988907,184.653198 173.393280,184.206802 171.579315,182.245880 
	C169.205795,179.680054 166.766830,177.149796 164.141876,174.848495 
	C161.514114,172.544708 161.511734,170.789566 164.177689,168.418427 
	C172.904724,160.656372 179.643661,151.392258 183.403824,140.281693 
	C193.161179,111.450569 188.863922,85.265862 168.054306,62.435101 
	C166.170486,60.368317 163.789001,58.755142 161.851349,57.111732 
	C166.794159,52.300858 171.039536,48.168800 175.387863,43.936550 
	C207.003067,67.583946 222.543961,127.228775 186.377747,172.373657 
z"/>
<path fill="#CF95D9" opacity="1.000000" stroke="none" 
	d="
M33.638443,162.365906 
	C7.943657,121.049294 20.455679,68.771103 51.360695,44.015739 
	C55.553165,48.180382 59.737576,52.337021 64.311844,56.880924 
	C47.676285,72.165619 38.624260,90.938835 38.785931,114.024284 
	C38.946537,136.959259 48.082523,155.500961 66.159012,171.646927 
	C61.209919,175.699539 56.538242,179.524994 51.517605,183.636169 
	C44.752872,178.035034 38.703526,170.870255 33.638443,162.365906 
z"/>
<path fill="#9E2AB1" opacity="1.000000" stroke="none" 
	d="
M146.825012,96.347336 
	C143.135834,91.446136 139.606003,86.883644 136.115677,82.372238 
	C140.021286,78.380226 144.179077,74.130470 148.324005,69.893852 
	C176.313507,90.468903 177.558533,135.846680 147.413086,157.947464 
	C143.359619,153.666718 139.275833,149.353958 134.934174,144.768860 
	C150.179550,131.860214 155.614685,116.014725 146.825012,96.347336 
z"/>
<path fill="#9E2AB1" opacity="1.000000" stroke="none" 
	d="
M83.678688,136.229645 
	C86.455597,139.119766 89.007088,141.728790 91.338028,144.112320 
	C87.036575,148.198547 82.670845,152.345840 78.143440,156.646713 
	C51.626530,138.224365 48.842102,92.798767 78.046448,70.360901 
	C82.060966,74.709908 86.081306,79.065216 90.409798,83.754364 
	C81.986633,90.810387 76.297379,100.381836 76.005333,112.621414 
	C75.799309,121.255653 78.410637,128.990189 83.678688,136.229645 
z"/>
<path fill="#7C20A3" opacity="1.000000" stroke="none" 
	d="
M131.877258,117.344902 
	C128.123306,127.451462 121.939156,132.223663 113.170242,132.126053 
	C105.335350,132.038864 98.492607,127.104340 95.897057,119.449944 
	C93.347260,111.930435 95.153336,105.293976 100.832008,99.928375 
	C106.550789,94.524895 113.451111,93.231255 120.644272,96.320198 
	C127.753410,99.373062 131.789429,105.005989 132.105652,112.951950 
	C132.158295,114.275177 132.015350,115.606201 131.877258,117.344902 
z"/>
</svg>